<?xml version="1.0" encoding="UTF-8"?>
<svg id="Button" data-name="Layer 2" xmlns="http://www.w3.org/2000/svg" xmlns:xlink="http://www.w3.org/1999/xlink" viewBox="0 0 240.2 248.73">
  <defs>
    <style>
      .cls-11 {
        fill: url(#linear-gradient);
        stroke-miterlimit: 10;
        stroke-width: 3px;
      }

      .cls-11, .cls-22 {
        stroke: #fff;
      }

      .cls-22 {
        fill: #107bd4;
        stroke-width: 4px;
      }

      .cls-33 {
        fill: #191919;
      }

      .cls-44 {
        fill: #111;
        opacity: .47;
      }
    </style>
    <linearGradient id="linear-gradient" x1="128.92" y1="98.84" x2="276.05" y2="98.84" gradientTransform="translate(-80.6 11.3) rotate(-1.06)" gradientUnits="userSpaceOnUse">
      <stop offset="0" stop-color="#ffcd76"/>
      <stop offset="1" stop-color="#fda23f"/>
    </linearGradient>
  </defs>
  <g id="Layer_1-2" data-name="Layer 1">
    <g>
      <circle class="cls-11" cx="123.68" cy="106.36" r="73.57"/>
      <path class="cls-44" d="M235.46,100.63c-9.8,0-13.71-9.11-11.76-16.42.18-.78.43-1.54.75-2.27-.1-.55-.28-1.19-.63-2.31-.06-.2-.08-.3-.08-.35-.08-.12-.2-.28-.35-.51-.33-.5-.64-1.03-.95-1.55-.25-.36-.36-.53-.32-.5l-.35-.42c-.59-.67-1.19-1.34-1.8-1.99-1.43-1.52-2.94-2.96-4.48-4.36-6.25-5.66-13.04-10.67-19.93-15.52-6.77-4.76-13.06-10.45-20.11-14.78-6.21-3.81-13.27-5.55-20.3-7.67-14.76-4.45-28.37-7.72-43.87-5.79-15.34,1.91-28.27,11.35-41.95,18.93-4.05,2.24-8.15,4.21-12.13,6.22-3.58,8.15-8.91,15.56-16.18,20.71-3.61,2.56-7.72,4.15-11.73,5.97-2.08.95-4.07,1.99-6.04,3.15-.03.02-.06.03-.09.05-.08.07-.27.23-.68.54-.26.2-.45.33-.58.41-.03.13-.14.39-.44.88-1.28,2.08-2.86,3.56-4.59,4.53l.02.18c.07,1.75-.3,3.38-1.09,4.89-.51,1.57-1.39,2.93-2.62,4.08-1.15,1.24-2.51,2.11-4.08,2.62-1.51.79-3.14,1.16-4.89,1.09h-1.85s-.03,0-.04,0c-1.5,7.83-2.29,15.91-2.29,24.19,0,68.54,53.77,124.1,120.1,124.1s120.1-55.56,120.1-124.1c0-8.19-.78-16.2-2.25-23.94"/>
      <ellipse class="cls-33" cx="119.91" cy="121.91" rx="112.17" ry="115.9"/>
      <circle class="cls-22 BgColorSelection" cx="119.55" cy="114.17" r="112.17"/>
    </g>
  </g>
</svg>