<?xml version="1.0" encoding="UTF-8"?>
<svg id="Layer_2" data-name="Layer 2" xmlns="http://www.w3.org/2000/svg" viewBox="0 0 1445.11 1445.11">
  <defs>
    <style>
      .cls-1 {
        opacity: .75;
      }

      .cls-2 {
        opacity: .88;
      }

      .cls-3 {
        opacity: .62;
      }

      .cls-4 {
        opacity: .44;
      }

      .cls-5 {
        fill: #7d7d7d;
      }

      .cls-6 {
        font-family: Lato-Black, Lato;
        font-weight: 800;
        <!-- font-family: MyriadPro-Regular, 'Myriad Pro'; -->
        font-size: 60.90px;
      }

      .cls-7 {
        opacity: .31;
      }

      .cls-8 {
        opacity: .69;
      }

      .cls-9 {
        fill: #fff;
      }

      .cls-10 {
        opacity: .56;
      }

      .cls-11 {
        opacity: .25;
      }

      .cls-12 {
        opacity: .12;
      }

      .cls-13 {
        opacity: .38;
      }

      .cls-14 {
        opacity: .19;
      }

      .cls-15 {
        opacity: .15;
      }

      .cls-16 {
        opacity: 0;
      }

      .cls-17 {
        opacity: .81;
      }

      .cls-18 {
        letter-spacing: 0em;
      }

      .cls-19 {
        opacity: .06;
      }

      .cls-20 {
        letter-spacing: 0em;
      }

      .cls-21 {
        opacity: .94;
      }

      .cls-22 {
        opacity: .5;
      }

      .cls-23 {
        fill: #777677;
      }
    </style>
  </defs>
  <g id="Layer_1-2" data-name="Layer 1">
    <g>
      <path class="cls-9 WheelColorSelect1 " d="M722.56,722.56L103.77,981.79c-71.59-170.87-67.14-354.59-2.07-513.48l620.86,254.25Z"/>
      <path class="cls-9 WheelColorSelect1" d="M976.8,101.7l-254.25,620.86L463.32,103.77c170.87-71.59,354.59-67.14,513.48-2.07Z"/>
      <path class="cls-9 WheelColorSelect1" d="M1341.34,463.32c71.59,170.87,67.14,354.59,2.07,513.48l-620.86-254.25,618.79-259.23Z"/>
      <path class="cls-9 WheelColorSelect1" d="M722.56,722.56l259.23,618.79c-170.87,71.59-354.59,67.14-513.48,2.07l254.25-620.86Z"/>
    </g>
    <g>
      <path class="cls-23 WheelColorSelect2" d="M463.32,103.77l259.23,618.79L101.7,468.31c65.07-158.89,190.75-292.96,361.63-364.54Z"/>
      <path class="cls-23 WheelColorSelect2" d="M1341.34,463.32l-618.79,259.23L976.8,101.7c158.89,65.07,292.96,190.75,364.54,361.63Z"/>
      <path class="cls-23 WheelColorSelect2" d="M1343.41,976.8c-65.07,158.89-190.75,292.96-361.63,364.54l-259.23-618.79,620.86,254.25Z"/>
      <path class="cls-23 WheelColorSelect2" d="M722.56,722.56l-254.25,620.86c-158.89-65.07-292.96-190.75-364.54-361.63l618.79-259.23Z"/>
    </g>
    <path class="cls-5 WheelColorSelect2" d="M722.29,52c87.86,0,174.25,17.38,254.32,50.17,158.77,65.02,292.73,190.61,364.26,361.35,71.53,170.74,67.09,354.32,2.07,513.08-65.02,158.77-190.61,292.73-361.35,364.26-84.63,35.46-172.41,52.24-258.76,52.24s-174.25-17.38-254.32-50.17c-158.77-65.02-292.73-190.61-364.26-361.35-71.53-170.74-67.09-354.32-2.07-513.08,65.02-158.77,190.61-292.73,361.35-364.26,84.63-35.46,172.41-52.24,258.76-52.24M722.29,0c-95.89,0-189.71,18.94-278.85,56.28-89.93,37.67-169.81,91.85-237.42,161.03-32.49,33.25-61.92,69.87-87.46,108.86-25.29,38.6-46.99,79.86-64.5,122.62-17.51,42.76-30.98,87.39-40.03,132.65C4.88,627.15.16,673.89,0,720.38c-.33,96.73,18.61,191.38,56.28,281.3,37.67,89.93,91.85,169.81,161.03,237.42,33.25,32.49,69.87,61.92,108.86,87.46,38.6,25.29,79.86,46.99,122.62,64.5,43.14,17.67,88.17,31.21,133.83,40.27,46.13,9.15,93.3,13.78,140.2,13.78,95.89,0,189.71-18.94,278.85-56.28,89.93-37.67,169.81-91.85,237.42-161.03,32.49-33.25,61.92-69.87,87.46-108.86,25.29-38.6,46.99-79.86,64.5-122.62,17.51-42.76,30.98-87.39,40.03-132.65,9.14-45.7,13.86-92.45,14.02-138.93.33-96.73-18.61-191.38-56.28-281.3-37.67-89.93-91.85-169.81-161.03-237.42-33.25-32.49-69.87-61.92-108.86-87.46-38.6-25.29-79.86-46.99-122.63-64.5-43.14-17.67-88.17-31.21-133.83-40.27-46.13-9.15-93.3-13.78-140.2-13.78h0Z"/>
    <g class="cls-15">
      <circle cx="722.56" cy="722.56" r="670.24" transform="translate(-299.29 722.56) rotate(-45)"/>
      <circle class="cls-21" cx="722.56" cy="722.56" r="667.62"/>
      <circle class="cls-2" cx="722.56" cy="722.56" r="665" transform="translate(-299.29 722.56) rotate(-45)"/>
      <circle class="cls-17" cx="722.56" cy="722.56" r="662.38" transform="translate(-299.29 722.56) rotate(-45)"/>
      <circle class="cls-1" cx="722.56" cy="722.56" r="659.77"/>
      <circle class="cls-8" cx="722.56" cy="722.56" r="657.15" transform="translate(-299.29 722.56) rotate(-45)"/>
      <circle class="cls-3" cx="722.56" cy="722.56" r="654.53" transform="translate(-299.29 722.56) rotate(-45)"/>
      <circle class="cls-10" cx="722.56" cy="722.56" r="651.91" transform="translate(-299.29 722.56) rotate(-45)"/>
      <circle class="cls-22" cx="722.56" cy="722.56" r="649.29" transform="translate(-299.29 722.56) rotate(-45)"/>
      <circle class="cls-4" cx="722.56" cy="722.56" r="646.67" transform="translate(-299.29 722.56) rotate(-45)"/>
      <circle class="cls-13" cx="722.56" cy="722.56" r="644.06" transform="translate(-299.29 722.56) rotate(-45)"/>
      <circle class="cls-7" cx="722.56" cy="722.56" r="641.44" transform="translate(-299.29 722.56) rotate(-45)"/>
      <circle class="cls-11" cx="722.56" cy="722.56" r="638.82" transform="translate(-299.29 722.56) rotate(-45)"/>
      <circle class="cls-14" cx="722.56" cy="722.56" r="636.2" transform="translate(-299.29 722.56) rotate(-45)"/>
      <circle class="cls-12" cx="722.56" cy="722.56" r="633.58" transform="translate(-299.29 722.56) rotate(-45)"/>
      <circle class="cls-19" cx="722.56" cy="722.56" r="630.97" transform="translate(-299.29 722.56) rotate(-45)"/>
      <circle class="cls-16" cx="722.56" cy="722.56" r="628.35" transform="translate(-299.29 722.56) rotate(-45)"/>
    </g>
    <g class="cls-16">
      <g>
        <path d="M468.48,70.33c3.83,9.13-.48,19.63-9.61,23.46s-19.63-.48-23.46-9.61c-3.82-9.13.48-19.63,9.6-23.45s19.63.48,23.46,9.6Z"/>
        <path d="M1010.57,1364.3c3.82,9.13-.48,19.63-9.61,23.46s-19.63-.48-23.46-9.61.48-19.63,9.6-23.45,19.63.48,23.46,9.6Z"/>
      </g>
      <g>
        <path d="M68.33,976.87c9.13-3.82,19.63.48,23.46,9.6,3.82,9.13-.48,19.63-9.61,23.46-9.13,3.82-19.63-.48-23.46-9.61-3.82-9.13.48-19.63,9.6-23.45Z"/>
        <path d="M1362.29,434.78c9.13-3.82,19.63.48,23.45,9.6,3.82,9.13-.48,19.63-9.6,23.46-9.13,3.82-19.63-.48-23.46-9.61s.48-19.63,9.61-23.46Z"/>
      </g>
      <g>
        <path d="M215.2,1207.86c6.97-7.03,18.31-7.07,25.34-.1,7.03,6.97,7.07,18.31.1,25.34-6.97,7.03-18.31,7.07-25.34.1-7.03-6.97-7.07-18.31-.1-25.34Z"/>
        <path d="M1203.22,211.86c6.97-7.02,18.31-7.07,25.34-.1,7.03,6.97,7.07,18.32.1,25.34-6.97,7.03-18.31,7.07-25.34.1-7.03-6.97-7.07-18.31-.1-25.34Z"/>
      </g>
      <g>
        <path d="M1423.32,701.74c-9.9.04-17.89,8.1-17.85,17.99.04,9.9,8.09,17.89,17.99,17.85,9.9-.04,17.88-8.09,17.85-17.99-.04-9.89-8.09-17.89-17.99-17.85Z"/>
        <path d="M20.41,707.39c-9.9.04-17.88,8.09-17.85,17.99.04,9.9,8.1,17.89,17.99,17.85,9.9-.04,17.89-8.09,17.85-17.99-.04-9.9-8.09-17.89-17.99-17.85Z"/>
      </g>
      <g>
        <path d="M440.61,1366.58c3.75-9.16,14.22-13.54,23.38-9.79,9.16,3.75,13.54,14.22,9.79,23.38-3.75,9.16-14.22,13.54-23.38,9.79-9.16-3.75-13.55-14.22-9.79-23.38Z"/>
        <path d="M972.26,68.29c3.75-9.16,14.22-13.55,23.38-9.79,9.16,3.75,13.55,14.22,9.79,23.38-3.75,9.16-14.22,13.55-23.38,9.79-9.16-3.75-13.54-14.22-9.79-23.38Z"/>
      </g>
      <g>
        <path d="M707.92,1425.75c-.04-9.9,7.95-17.95,17.85-17.99,9.9-.04,17.95,7.95,17.99,17.85.04,9.9-7.95,17.95-17.85,17.99-9.9.04-17.95-7.95-17.99-17.85Z"/>
        <path d="M702.28,22.84c-.04-9.9,7.95-17.95,17.85-17.99,9.9-.04,17.95,7.95,17.99,17.85.04,9.89-7.95,17.95-17.85,17.99-9.89.04-17.95-7.95-17.99-17.85Z"/>
      </g>
      <g>
        <path d="M1378.17,971.6c-9.16-3.75-19.63.63-23.38,9.79-3.75,9.16.63,19.63,9.79,23.38,9.16,3.75,19.63-.63,23.38-9.79,3.75-9.16-.63-19.63-9.79-23.38Z"/>
        <path d="M79.89,439.94c-9.16-3.75-19.63.63-23.38,9.79-3.75,9.16.63,19.63,9.79,23.38,9.16,3.75,19.63-.63,23.38-9.79,3.75-9.16-.63-19.63-9.79-23.38Z"/>
      </g>
      <g>
        <path d="M1233.2,1203.28c-7.03-6.96-18.37-6.91-25.34.12-6.96,7.03-6.91,18.38.12,25.34,7.03,6.96,18.38,6.91,25.34-.12,6.97-7.03,6.91-18.38-.12-25.34Z"/>
        <path d="M236.49,215.97c-7.03-6.96-18.38-6.91-25.34.12-6.97,7.03-6.91,18.37.12,25.34,7.03,6.96,18.37,6.91,25.34-.12,6.96-7.03,6.91-18.38-.12-25.34Z"/>
      </g>
    </g>
    
    <text class="cls-6 Coup1 WheelFontColor2" text-anchor="middle" transform="translate(741.85 350.98) rotate(-89.19)"><tspan x="0" y="0">10% DISCOUNT</tspan></text>
    <text class="cls-6 Coup2 WheelFontColor1" text-anchor="middle" transform="translate(475.34 430.99) rotate(-134.19)"><tspan x="0" y="0">20% DISCOUNT</tspan></text>
    <text class="cls-6 Coup3 WheelFontColor2" text-anchor="middle" transform="translate(360.98 700.26) rotate(-179.19)"><tspan x="0" y="0">30% DISCOUNT</tspan></text>
    <text class="cls-6 Coup4 WheelFontColor1" text-anchor="middle" transform="translate(440.99 960.77) rotate(135.81)"><tspan x="0" y="0">40% DISCOUNT</tspan></text>
    <text class="cls-6 Coup5 WheelFontColor2" text-anchor="middle" transform="translate(703.26 1080.14) rotate(90.81)"><tspan x="0" y="0">50% DISCOUNT</tspan></text>
    <text class="cls-6  Coup6 WheelFontColor1" text-anchor="middle" transform="translate(960.77 990.12) rotate(45.81)"><tspan x="0" y="0">60% DISCOUNT</tspan></text>
    <text class="cls-6  Coup7 WheelFontColor2" text-anchor="middle" transform="translate(1090.14 750.86) rotate(.81)"><tspan x="0" y="0">70% DISCOUNT</tspan></text>
    <text class="cls-6  Coup8 WheelFontColor1" text-anchor="middle" transform="translate(1002.12 470.34) rotate(-44.19)"><tspan x="0" y="0">80% DISCOUNT</tspan></text>
  </g>
</svg>