<?xml version="1.0" encoding="UTF-8"?>
<svg id="ReWheel-4" data-name="Layer 2" xmlns="http://www.w3.org/2000/svg" viewBox="0 0 1444.78 1444.8">
  <defs>
    <style>
      .cls-1 {
        opacity: .75;
      }

      .cls-2 {
        opacity: .88;
      }

      .cls-3 {
        opacity: .62;
      }

      .cls-4 {
        opacity: .44;
      }

      .cls-5 {
        fill: #7d7d7d;
      }

      .cls-6 {
        font-family: MyriadPro-Regular, 'Myriad Pro';
        font-size: 76.31px;
      }

      .cls-7 {
        opacity: .31;
      }

      .cls-8 {
        opacity: .69;
      }

      .cls-9 {
        fill: #fff;
      }

      .cls-10 {
        opacity: .56;
      }

      .cls-11 {
        opacity: .25;
      }

      .cls-12 {
        opacity: .12;
      }

      .cls-13 {
        opacity: .38;
      }

      .cls-14 {
        opacity: .19;
      }

      .cls-15 {
        opacity: .15;
      }

      .cls-16 {
        opacity: 0;
      }

      .cls-17 {
        opacity: .81;
      }

      .cls-18 {
        letter-spacing: 0em;
      }

      .cls-19 {
        opacity: .06;
      }

      .cls-20 {
        letter-spacing: 0em;
      }

      .cls-21 {
        opacity: .94;
      }

      .cls-22 {
        opacity: .5;
      }

      .cls-23 {
        fill: #777677;
      }
    </style>
  </defs>
  <g id="Layer_1-2" data-name="Layer 1">
    <g>
      <g>
        <path class="cls-9 WheelColorSelect1" d="M720.91,723.81l448.2-530.64c-.09-.08-.18-.15-.27-.23C875.93-54.47,437.91-17.58,190.5,275.34c-.08.09-.15.18-.23.27l530.64,448.2Z"/>
        <path class="cls-9 WheelColorSelect1" d="M720.91,723.81l-448.2,530.64c.09.08.18.15.27.23,292.92,247.41,730.94,210.52,978.35-82.4.08-.09.15-.18.23-.27l-530.64-448.2Z"/>
      </g>
      <g>
        <path class="cls-23 WheelColorSelect2" d="M720.91,723.81l448.2-530.64c.09.08.18.15.27.23,292.92,247.41,329.81,685.43,82.4,978.35-.08.09-.15.18-.23.27l-530.64-448.2Z"/>
        <path class="cls-23 WheelColorSelect2" d="M720.91,723.81l-448.2,530.64c-.09-.08-.18-.15-.27-.23C-20.47,1006.81-57.37,568.79,190.04,275.88c.08-.09.15-.18.23-.27l530.64,448.2Z"/>
      </g>
    </g>
    <g class="cls-15">
      <circle cx="721.08" cy="723.95" r="670.24"/>
      <circle class="cls-21" cx="721.08" cy="723.95" r="667.62"/>
      <circle class="cls-2" cx="721.08" cy="723.95" r="665" transform="translate(-300.71 721.92) rotate(-45)"/>
      <circle class="cls-17" cx="721.08" cy="723.95" r="662.38"/>
      <circle class="cls-1" cx="721.08" cy="723.95" r="659.77"/>
      <circle class="cls-8" cx="721.08" cy="723.95" r="657.15" transform="translate(-300.71 721.92) rotate(-45)"/>
      <circle class="cls-3" cx="721.08" cy="723.95" r="654.53"/>
      <circle class="cls-10" cx="721.08" cy="723.95" r="651.91" transform="translate(-300.71 721.92) rotate(-45)"/>
      <circle class="cls-22" cx="721.08" cy="723.95" r="649.29" transform="translate(-300.71 721.92) rotate(-45)"/>
      <circle class="cls-4" cx="721.08" cy="723.95" r="646.67"/>
      <circle class="cls-13" cx="721.08" cy="723.95" r="644.06" transform="translate(-300.71 721.92) rotate(-45)"/>
      <circle class="cls-7" cx="721.08" cy="723.95" r="641.44" transform="translate(-300.71 721.92) rotate(-45)"/>
      <circle class="cls-11" cx="721.08" cy="723.95" r="638.82"/>
      <circle class="cls-14" cx="721.08" cy="723.95" r="636.2" transform="translate(-300.71 721.92) rotate(-45)"/>
      <circle class="cls-12" cx="721.08" cy="723.95" r="633.58" transform="translate(-300.71 721.92) rotate(-45)"/>
      <circle class="cls-19" cx="721.08" cy="723.95" r="630.97"/>
      <circle class="cls-16" cx="721.08" cy="723.95" r="628.35" transform="translate(-300.71 721.92) rotate(-45)"/>
    </g> 
    <path class="cls-5 WheelColorSelect2" d="M722.72,52c152.77,0,306.39,51.96,432.24,158.26,141.42,119.45,221.05,284.92,235.45,455.88,14.4,170.96-36.43,347.41-155.88,488.84-119.45,141.42-284.92,221.05-455.88,235.45-18.82,1.59-37.69,2.38-56.59,2.38-152.77,0-306.39-51.96-432.24-158.26-141.42-119.45-221.05-284.92-235.45-455.88-14.4-170.96,36.43-347.41,155.88-488.84,119.45-141.42,284.92-221.05,455.88-235.45,18.82-1.59,37.69-2.38,56.59-2.38M722.72,0c-20.26,0-40.77.86-60.96,2.56-46.05,3.88-91.92,12.21-136.33,24.75-44.85,12.67-88.62,29.75-130.08,50.78-86.28,43.75-161.92,103.7-224.83,178.18-62.91,74.48-109.36,159.09-138.07,251.47-13.79,44.39-23.32,90.4-28.3,136.74-4.94,45.88-5.48,92.5-1.6,138.55,3.88,46.05,12.21,91.92,24.75,136.33,12.67,44.85,29.75,88.62,50.78,130.08,43.75,86.27,103.7,161.92,178.18,224.83,66.31,56.01,141,99.14,222.02,128.21,78.26,28.08,160.28,42.32,243.78,42.32,20.26,0,40.77-.86,60.96-2.56,46.05-3.88,91.91-12.21,136.33-24.75,44.85-12.67,88.62-29.75,130.08-50.78,86.27-43.75,161.92-103.7,224.83-178.18,62.91-74.48,109.36-159.09,138.07-251.47,13.79-44.39,23.32-90.4,28.3-136.74,4.94-45.88,5.48-92.5,1.6-138.55-3.88-46.05-12.21-91.91-24.75-136.33-12.67-44.85-29.75-88.62-50.78-130.08-43.75-86.27-103.7-161.92-178.18-224.83-66.31-56.01-141-99.14-222.02-128.21C888.24,14.24,806.22,0,722.72,0h0Z"/>
    <text class="cls-6 Coup1 WheelFontColor2" text-anchor="middle" transform="translate(733.81 350.7) rotate(-90.72)"><tspan x="0" y="0">10% DISCOUNT</tspan></text>
    <text class="cls-6 Coup2 WheelFontColor1" text-anchor="middle" transform="translate(356.83 700.23) rotate(-180.72)"><tspan x="0" y="0">20% DISCOUNT</tspan></text>
    <text class="cls-6 Coup3 WheelFontColor2" text-anchor="middle" transform="translate(708.36 1080.2) rotate(90.28)"><tspan x="0" y="0">30% DISCOUNT</tspan></text>
     <text class="cls-6 Coup4 WheelFontColor1" text-anchor="middle" transform="translate(1095.33 736.68) rotate(0)"><tspan x="0" y="0">40% DISCOUNT</tspan></text>
  </g>
</svg>